<svg xmlns="http://www.w3.org/2000/svg" viewBox="0 0 900 620"><defs><linearGradient id="g" x1="0" x2="1"><stop stop-color="#ff2fb3"/><stop offset=".48" stop-color="#7c3aed"/><stop offset="1" stop-color="#06d6ff"/></linearGradient><filter id="s"><feDropShadow dx="0" dy="24" stdDeviation="24" flood-opacity=".18"/></filter></defs><rect width="900" height="620" rx="42" fill="#eef2ff"/><circle cx="770" cy="90" r="150" fill="#dbeafe"/><circle cx="100" cy="530" r="180" fill="#fce7f3"/><g filter="url(#s)"><rect x="170" y="55" width="560" height="510" rx="30" fill="white"/><rect x="200" y="85" width="500" height="68" rx="18" fill="#f8fafc"/><rect x="218" y="103" width="38" height="38" rx="12" fill="url(#g)"/><rect x="275" y="101" width="110" height="13" rx="6" fill="#111827"/><rect x="275" y="124" width="160" height="8" rx="4" fill="#cbd5e1"/><rect x="200" y="178" width="500" height="130" rx="22" fill="#f8f5ff"/><rect x="225" y="204" width="230" height="14" rx="7" fill="#7c3aed"/><rect x="225" y="232" width="340" height="10" rx="5" fill="#cbd5e1"/><rect x="225" y="253" width="270" height="10" rx="5" fill="#e2e8f0"/><rect x="200" y="330" width="500" height="64" rx="18" fill="#fff" stroke="#e2e8f0"/><rect x="225" y="353" width="110" height="12" rx="6" fill="#94a3b8"/><rect x="550" y="347" width="110" height="24" rx="12" fill="#111827"/><rect x="200" y="416" width="500" height="66" rx="20" fill="url(#g)"/><text x="450" y="458" text-anchor="middle" fill="white" font-family="Arial" font-size="20" font-weight="700">Pay securely</text></g></svg>
